<svg width="478.99999999999994" height="286" xmlns="http://www.w3.org/2000/svg">
    <g>
        <title>background</title>
        <rect fill="none" id="canvas_background" height="288" width="481" y="-1" x="-1"/>
    </g>
    <g>
        <title>Layer 1</title>
        <path id="svg_1" d="m238.378983,5.20773c49.88,0.55 94.16,13.87 133.69,41.41c36.65,25.53 63.45,59.23 80.57,100.65c12.35,29.86 17.76,60.91 17.36,93.07c-0.09,7.63 -0.9,15.25 -1.41,22.88c-0.35,5.27 -2.14,9.84 -7.6,11.53c-5.96,1.85 -10.44,-0.81 -14.06,-5.53c-11.84,-15.44 -23.74,-30.84 -35.63,-46.25c-1.2,-1.56 -2.35,-3.18 -3.7,-4.61c-5.37,-5.72 -10.49,-5.49 -15.43,0.8c-6.24,7.94 -12.36,15.97 -18.53,23.96c-0.75,0.98 -1.46,1.99 -2.23,2.95c-7.99,10.01 -14.79,10.05 -22.59,0.01c-8.31,-10.7 -16.47,-21.52 -24.75,-32.23c-9.04,-11.69 -18.13,-23.34 -27.24,-34.98c-1.05,-1.35 -2.24,-2.66 -3.6,-3.68c-3.72,-2.81 -6.37,-2.9 -9.91,0.32c-2.88,2.62 -5.29,5.79 -7.71,8.87c-8.52,10.86 -17.38,21.48 -25.27,32.79c-5.57,7.99 -15.07,8.32 -21.31,0.04c-20.74,-27.54 -42.02,-54.67 -63.11,-81.94c-2.41,-3.12 -4.91,-6.17 -7.44,-9.19c-5.32,-6.36 -10.58,-6.46 -15.85,0.14c-8.6,10.78 -16.94,21.78 -25.37,32.7c-25.46,32.93 -50.91,65.86 -76.37,98.78c-3.31,4.28 -6.79,8.44 -10.01,12.79c-3.41,4.61 -7.98,5.77 -13.1,4.19c-4.73,-1.46 -7,-5.36 -7.24,-10.15c-0.65,-13.28 -1.94,-26.6 -1.45,-39.85c0.65,-17.49 3.64,-34.74 8.41,-51.69c6.88,-24.44 17.64,-46.98 31.95,-67.86c23.22,-33.87 53.53,-59.43 90.5,-77.24c31.68,-15.28 65.13,-22.3 98.43,-22.68z" fill="#ffffff"/>
    </g>
</svg>
