<?xml version="1.0" encoding="utf-8"?>
<!-- Generator: Adobe Illustrator 23.0.1, SVG Export Plug-In . SVG Version: 6.00 Build 0)  -->
<svg version="1.1" id="Шар_1" xmlns="http://www.w3.org/2000/svg" xmlns:xlink="http://www.w3.org/1999/xlink" x="0px" y="0px"
	 viewBox="0 0 1000 1000" style="enable-background:new 0 0 1000 1000;" xml:space="preserve">
<g>
	<path d="M499.41,491.04c24.48,0,48.96-0.01,73.44,0.01c7.83,0.01,12.27,3.89,12.21,10.59c-0.06,6.3-4.66,10.23-12.14,10.24
		c-49.13,0.02-98.25,0.02-147.38-0.01c-6.94,0-11.35-3.55-12.03-9.43c-0.57-4.89,2.6-9.69,7.52-10.98c1.73-0.45,3.62-0.4,5.44-0.4
		C450.79,491.03,475.1,491.04,499.41,491.04z"/>
	<path d="M522.57,439.99c17.66,0,35.31-0.02,52.97,0.01c6.44,0.01,9.46,3.23,9.53,10c0.07,6.93-3.15,10.67-9.6,10.68
		c-35.48,0.06-70.96,0.07-106.44,0.04c-6.34-0.01-10-3.99-9.97-10.51c0.03-6.57,3.54-10.22,10.04-10.23
		c17.82-0.03,35.65-0.01,53.47-0.01C522.57,439.97,522.57,439.98,522.57,439.99z"/>
	<path d="M521.99,562.02c-17.66,0-35.32,0-52.98,0c-6.39,0-9.98-3.72-9.96-10.31c0.02-6.54,3.65-10.44,10.03-10.45
		c35.32-0.03,70.64-0.02,105.96,0.03c6.84,0.01,10.13,3.63,10.03,10.74c-0.1,6.92-3.16,9.96-10.1,9.96c-17.66,0.01-35.32,0-52.98,0
		C521.99,562,521.99,562.01,521.99,562.02z"/>
</g>
</svg>
