<svg width="392" height="392" xmlns="http://www.w3.org/2000/svg">
	<path fill="none" d="M-1-1h394v394H-1z"/>
	<g>
		<path fill="#f08040" d="M72.817 37.867c0 13.29-.05 26.07.04 38.84.02 3.14.17 6.35.87 9.39 2.69 11.72 13.07 20.01 25.09 20.65 10.96.58 20.94-1.1 28.15-10.49 3.78-4.92 5.77-10.38 5.75-16.62-.05-13.65-.01-27.31-.01-41.37h132.8c.09 1.6.25 3.2.25 4.81.02 11.66-.02 23.33.02 34.99.06 15.99 10.23 27.19 26.25 28.09 5.88.33 12.06-.19 17.74-1.69 10.19-2.71 15.85-11.03 15.88-21.56.03-14.8.01-29.59.01-45.04 7.03 0 13.64-.09 20.24.02 7.64.13 15.39-.29 22.9.83 11.93 1.78 19.89 11.8 19.9 23.88.03 98.47.04 196.95-.01 295.42-.01 13.02-9.94 23.46-22.94 24.45-1 .08-2 .08-3 .08-109.97 0-219.94.02-329.91-.02-13.22 0-22.7-7.29-25.53-19.42-.48-2.08-.56-4.28-.57-6.43-.03-97.64-.03-195.28-.02-292.92 0-15.2 10.46-25.78 25.65-25.88 13.3-.08 26.59-.01 40.45-.01zm-41.34 319.68h332.31v-222.43H31.477v222.43z"/>
		<path fill="#f08040" d="M279.437 52.078c0-8.99-.05-17.98.01-26.97.08-10.9 6.38-16.83 17.77-16.84 11.37-.01 17.96 5.96 18.02 16.63.09 17.98.08 35.96.01 53.94-.04 10.51-6.42 16.7-16.82 16.57-14.02-.16-18.99-5.23-18.99-19.36v-23.97zm-157.16.4c0 8.99.05 17.97-.01 26.96-.07 10.4-6.38 16.52-16.98 16.56-12.05.05-18.65-5.58-18.72-16.35-.12-18.3-.11-36.61 0-54.91.06-9.65 6.29-15.66 16.01-15.88 14.24-.31 19.7 4.99 19.7 19.16v24.46zm111.58 283.08c-6.49 0-12.98-.08-19.47.04-3.9.07-5.83-1.33-5.78-5.51.14-11.15.12-22.29.01-33.44-.04-4.03 1.57-5.62 5.66-5.58 13.14.16 26.29.14 39.43.01 3.79-.04 5.51 1.33 5.48 5.21-.09 11.31-.11 22.63.01 33.94.04 3.87-1.63 5.41-5.38 5.36-6.65-.1-13.3-.04-19.96-.03zm-.11-124.49c-6.65 0-13.3-.1-19.95.04-3.64.07-5.15-1.56-5.15-5.06.03-11.47.03-22.94 0-34.42-.01-3.26 1.37-4.91 4.77-4.9 13.63.05 27.27.06 40.9-.01 3.71-.02 4.91 1.81 4.88 5.27-.09 11.3-.1 22.61 0 33.92.03 3.93-1.78 5.27-5.5 5.19-6.65-.13-13.3-.03-19.95-.03zm-.14 62.21c-6.48 0-12.97-.11-19.45.04-3.76.08-5.54-1.38-5.52-5.23.07-11.31.07-22.61 0-33.92-.03-3.8 1.6-5.36 5.42-5.33 13.3.11 26.6.1 39.91 0 3.93-.03 5.28 1.76 5.24 5.47-.1 11.14-.12 22.28.01 33.42.04 4.05-1.58 5.7-5.65 5.6-6.66-.18-13.31-.05-19.96-.05zm72.37 17.84c6.66 0 13.32.1 19.97-.04 3.42-.07 4.89 1.43 4.88 4.73-.02 11.65-.04 23.3.02 34.95.02 3.42-1.66 4.81-4.9 4.8-13.48-.02-26.96-.04-40.44 0-3.46.01-5.19-1.28-5.15-5.02.12-11.48.1-22.97.01-34.45-.03-3.64 1.59-5.07 5.14-5.01 6.82.12 13.65.04 20.47.04zm-.35-80.05c-6.65 0-13.31-.09-19.96.04-3.84.08-5.35-1.55-5.31-5.37.12-11.31.12-22.62 0-33.93-.04-3.64 1.4-5.1 5-5.08 13.47.08 26.95.07 40.42 0 3.54-.02 5.12 1.42 5.09 5.07-.11 11.31-.13 22.62 0 33.93.05 4.19-1.82 5.52-5.78 5.4-6.48-.2-12.97-.06-19.46-.06zm-143.71 62.21c-6.65 0-13.3-.06-19.96.03-3.35.05-4.81-1.34-4.78-4.76.09-11.64.1-23.28 0-34.92-.03-3.43 1.43-4.78 4.78-4.77 13.64.06 27.27.04 40.91.01 3.09-.01 4.56 1.3 4.54 4.5-.06 11.81-.07 23.61 0 35.42.02 3.59-1.86 4.55-5.04 4.52-6.81-.09-13.63-.03-20.45-.03zm143.68 0c-6.66 0-13.32-.1-19.97.04-3.88.08-5.31-1.6-5.27-5.4.12-11.32.1-22.64.01-33.95-.03-3.58 1.41-5.14 5.03-5.12 13.48.08 26.96.08 40.44 0 3.65-.02 5.04 1.6 5.02 5.14-.08 11.32-.1 22.64.01 33.95.04 3.79-1.4 5.47-5.29 5.38-6.66-.16-13.32-.04-19.98-.04zm-215.11 62.28c-6.48 0-12.97-.1-19.45.04-3.94.09-5.74-1.31-5.67-5.51.18-11.14.15-22.28.01-33.42-.05-4.06 1.53-5.65 5.6-5.6 13.13.14 26.27.14 39.4 0 3.85-.04 5.4 1.38 5.36 5.24-.12 11.3-.13 22.61.01 33.92.05 3.87-1.51 5.43-5.31 5.36-6.64-.11-13.3-.03-19.95-.03zm71.78-44.44c6.49 0 12.97.14 19.45-.05 3.96-.11 5.78 1.22 5.71 5.43-.17 11.3-.15 22.61 0 33.92.05 3.63-1.34 5.17-4.91 5.16-13.47-.04-26.94-.05-40.41 0-3.57.01-5.01-1.5-4.96-5.14.14-11.31.16-22.62-.01-33.92-.06-4.19 1.65-5.58 5.66-5.46 6.5.21 12.99.06 19.47.06zm-71.67-17.84c-6.5 0-13-.12-19.5.05-3.99.1-5.78-1.35-5.73-5.51.14-11.16.15-22.33 0-33.49-.06-4.19 1.77-5.53 5.74-5.49 13 .13 26 .14 38.99-.01 4.04-.05 5.71 1.36 5.65 5.51-.16 11.16-.16 22.33 0 33.49.06 4.15-1.61 5.63-5.66 5.5-6.48-.2-12.99-.05-19.49-.05z"/>
	</g>
</svg>
