<svg width="309" height="309" xmlns="http://www.w3.org/2000/svg">
	<g>
		<title>background</title>
		<rect fill="none" id="canvas_background" height="311" width="311" y="-1" x="-1"/>
	</g>
	<g>
		<title>Layer 1</title>
		<g id="svg_1">
			<path id="svg_2" d="m259.601113,48.795203c-4.52,-0.41 -8.75,-0.92 -12.99,-1.14c-6.93,-0.35 -13.87,-0.66 -20.81,-0.72c-11.18,-0.1 -22.08,1.47 -32.19,6.62c-15.43,7.87 -24.2,20.8 -27.62,37.44c-1.15,5.57 -1.52,11.36 -1.66,17.06c-0.25,10.48 -0.12,20.97 -0.03,31.46c0.02,1.99 -0.64,2.47 -2.52,2.46c-11.56,-0.07 -23.11,-0.04 -34.67,-0.03c-2.86,0 -2.88,0.04 -2.88,2.92c0,13.69 0,27.39 0,41.08c0,2.67 0.01,2.67 2.6,2.68c11.76,0 23.51,0.03 35.27,-0.03c1.62,-0.01 2.19,0.41 2.19,2.12c-0.04,37.94 -0.04,75.89 0,113.83c0,1.62 -0.51,2.04 -2.07,2.04c-48.3,-0.04 -96.59,-0.02 -144.89,-0.06c-8.53,-0.01 -15.88,-7.53 -15.88,-16.17c-0.02,-46.03 -0.02,-92.05 -0.02,-138.08c0,-44.56 0,-89.11 0,-133.67c0,-8.87 5.23,-15.29 13.9,-16.99c1.49,-0.29 3.06,-0.2 4.59,-0.2c76.75,-0.01 153.51,-0.01 230.26,-0.01c13.09,0 26.19,-0.01 39.28,0.01c10.06,0.02 17.1,7.08 17.1,17.18c0.01,90.25 -0.04,180.5 0.06,270.75c0.01,9.6 -7.68,17.36 -17.34,17.28c-24.85,-0.19 -49.7,-0.08 -74.55,-0.02c-1.89,0 -2.5,-0.46 -2.49,-2.43c0.06,-37.74 0.06,-75.49 0,-113.23c0,-1.88 0.55,-2.36 2.38,-2.34c11.76,0.08 23.51,0 35.27,0.08c1.83,0.01 2.31,-0.56 2.52,-2.34c1.18,-9.84 2.54,-19.67 3.84,-29.5c0.56,-4.29 1.07,-8.59 1.68,-12.87c0.25,-1.75 -0.64,-2.02 -2.06,-2.01c-6.88,0.03 -13.76,0.01 -20.64,0.01c-6.88,0 -13.76,-0.04 -20.64,0.03c-1.66,0.02 -2.36,-0.36 -2.35,-2.22c0.09,-9.28 -0.02,-18.57 0.08,-27.86c0.03,-2.65 0.34,-5.34 0.9,-7.93c1.62,-7.47 6.82,-12.2 14.76,-12.7c8.32,-0.52 16.67,-0.36 25.01,-0.54c2.11,-0.05 4.89,0.5 6.13,-0.61c1.07,-0.96 0.44,-3.88 0.45,-5.93c0.02,-10.89 0.01,-21.78 0.01,-32.67c0.02,-0.81 0.02,-1.6 0.02,-2.75z"/>
		</g>
	</g>
</svg>
