<svg width="326" height="384" xmlns="http://www.w3.org/2000/svg">
	<path fill="none" d="M-1-1h328v386H-1z"/>
	<g>
		<path d="M130.398 381.25c-7.81-2.94-12.98-8.2-14.4-16.64-.3-1.81-.32-3.67-.32-5.51-.02-45.43.02-90.86-.11-136.3-.01-2.63-.81-5.62-2.2-7.84-33.63-53.67-67.44-107.23-101.04-160.92-3.56-5.68-6.59-11.86-8.84-18.16-5.15-14.41 2.27-28.06 16.96-32.32.69-.2 1.34-.55 2.01-.82h280.94c2.28.87 4.64 1.59 6.83 2.64 11.13 5.36 16.84 17.78 12.41 29.42-3.21 8.42-7.47 16.58-12.25 24.24-32.58 52.16-65.44 104.15-98.11 156.25-1.22 1.94-2 4.51-2.01 6.79-.14 27.46-.02 54.91-.12 82.37-.05 12.6-4.84 23.4-14.28 31.64-15.29 13.36-30.9 26.36-46.54 39.31-2.95 2.44-6.69 3.93-10.07 5.86-2.94-.01-5.9-.01-8.86-.01zm14.89-41.84c1.52-1.16 2.4-1.77 3.21-2.46 8.66-7.3 17.23-14.72 26-21.89 4.26-3.48 6.12-7.72 6.1-13.14-.07-27.71.09-55.43-.12-83.14-.05-6.67 1.65-12.21 5.27-17.92 34.67-54.64 69.05-109.47 103.5-164.26.67-1.06 1.21-2.21 1.95-3.59H34.468c1.37 2.26 2.41 4.03 3.5 5.76l33.21 52.8c22.87 36.34 45.64 72.76 68.74 108.95 3.84 6.01 5.5 11.95 5.47 19.01-.21 38.18-.1 76.37-.1 114.55v5.33z"/>
	</g>
</svg>
