<svg xmlns="http://www.w3.org/2000/svg" viewBox="0 0 1000 1000">
	<path d="M498.33 1.67h30c2.09.57 4.16 1.47 6.28 1.66 72.97 6.3 135.69 35.59 189.13 85.05 83.34 77.15 111.95 174.26 100.44 284.59-5.34 51.15-22.83 99.58-45.08 145.6-23.89 49.41-50.16 97.72-76.75 145.76-59.26 107.05-119.39 213.63-179.1 320.43-3.06 5.47-5.51 11.27-8.25 16.91h-3.33c-12.05-21.23-24.25-42.39-36.14-63.71-56.74-101.77-113.83-203.36-169.9-305.5-27.74-50.52-56.88-100.45-76.61-154.99-17.62-48.71-31.89-97.85-30.14-150.66 1.21-36.58 4.43-72.62 16.53-107.26 23.55-67.42 65.4-121.11 124.03-161.66 36.74-25.41 77.09-42.55 121.14-50.54 12.51-2.27 25.16-3.81 37.75-5.68zm150.05 319.87c.98-72.73-56.1-134.4-128.5-137.71-78.35-3.58-140.8 58.88-141.89 135.39-1.08 75.59 59.75 137.77 134.97 138.39 73.9.61 134.75-60.54 135.42-136.07z"/>
</svg>
