<svg width="391" height="391" xmlns="http://www.w3.org/2000/svg">
	<g>
		<title>background</title>
		<rect fill="none" id="canvas_background" height="393" width="393" y="-1" x="-1"/>
	</g>
	<g>
		<title>Layer 1</title>
		<g id="svg_1">
			<path id="svg_2" d="m177.320836,389.584103c-7.41,-0.25 -14.81,-0.6 -22.22,-0.74c-16.14,-0.31 -32.31,0.06 -48.41,-0.92c-22.64,-1.39 -43.05,-9.47 -60.85,-23.59c-23.15,-18.38 -37.29,-42.33 -41.6,-71.52c-1.75,-11.9 -1.5,-24.12 -1.72,-36.2c-0.44,-23.32 -0.88,-46.65 -0.75,-69.98c0.15,-26.73 0.27,-53.48 1.62,-80.17c1.15,-22.77 9.74,-43.19 24.09,-61.01c18.19,-22.59 41.73,-36.49 70.31,-40.83c12.38,-1.88 25.13,-1.62 37.71,-1.82c25.59,-0.4 51.19,-0.7 76.78,-0.58c23.95,0.11 47.93,0.23 71.85,1.41c22.93,1.13 43.53,9.55 61.45,23.96c24.72,19.88 38.72,45.82 41.95,77.3c1.08,10.5 0.83,21.16 0.96,31.74c0.29,25.09 0.69,50.19 0.57,75.28c-0.12,24.2 -0.22,48.43 -1.45,72.59c-1.17,23.06 -9.7,43.76 -24.28,61.73c-17.08,21.06 -38.86,34.9 -65.64,39.69c-11.2,2 -22.76,2.21 -34.19,2.61c-15,0.52 -30.02,0.41 -45.02,0.61c-1.11,0.01 -2.21,0.29 -3.31,0.44c-12.61,0 -25.23,0 -37.85,0zm-138.51,-193.77c0,24.71 -0.07,49.43 0.05,74.14c0.03,5.78 0.35,11.6 1.13,17.32c2.08,15.22 8.5,28.55 18.84,39.86c13.25,14.48 29.67,23.25 49.32,24.48c17.09,1.07 34.26,1.25 51.4,1.28c36.44,0.05 72.88,-0.22 109.33,-0.46c5.79,-0.04 11.64,-0.12 17.35,-0.98c19.37,-2.94 35.62,-11.74 48.16,-26.96c10,-12.14 16.23,-26.01 17.01,-41.79c0.83,-16.86 1.2,-33.77 1.21,-50.65c0.04,-37.58 -0.19,-75.15 -0.52,-112.73c-0.06,-6.38 -0.65,-12.86 -1.88,-19.12c-6.72,-34.14 -36.66,-60.59 -74.95,-61.02c-11.48,-0.13 -22.95,-0.3 -34.43,-0.25c-44,0.23 -88,-0.02 -131.98,1.05c-22.63,0.55 -40.61,11.95 -54.4,29.71c-11.06,14.25 -15.57,30.76 -15.63,48.58c-0.08,25.84 -0.01,51.69 -0.01,77.54z"/>
			<path id="svg_3" d="m195.350836,96.294103c54.47,-0.24 99.3,44.1 99.62,98.52c0.33,55.49 -43.82,100.16 -99.18,100.44c-54.92,0.28 -99.93,-44.51 -99.82,-99.83c0.09,-53.95 44.26,-99.3 99.38,-99.13zm-0.29,35.93c-35.7,0.93 -62.77,28.41 -62.96,62.92c-0.21,36.91 28.67,64.42 63.97,64c36.15,-0.44 62.83,-28.59 62.8,-63.28c-0.03,-36.78 -28.96,-63.26 -63.81,-63.64z"/>
			<path id="svg_4" d="m273.350836,94.334103c0.12,-12.72 9.91,-22.36 22.58,-22.25c12.32,0.11 22.39,10.45 22.21,22.79c-0.18,12.11 -10.51,22.26 -22.55,22.15c-12.42,-0.11 -22.35,-10.24 -22.24,-22.69z"/>
		</g>
	</g>
</svg>
