<svg width="377" height="376" xmlns="http://www.w3.org/2000/svg">

	<g>
		<title>background</title>
		<rect fill="none" id="canvas_background" height="378" width="379" y="-1" x="-1"/>
	</g>
	<g>
		<title>Layer 1</title>
		<g id="svg_1">
			<path id="svg_2" d="m369.791001,345.410615c-1.86,10.04 -9.05,16.21 -16.51,21.88c-6.15,4.67 -13.42,4.81 -20.58,2.37c-1.98,-0.67 -3.77,-2.26 -5.31,-3.76c-13.35,-12.95 -26.7,-25.89 -39.9,-39c-26.27,-26.07 -52.44,-52.24 -78.65,-78.38c-0.44,-0.44 -0.76,-0.99 -1.19,-1.56c-1.63,0.91 -3,1.63 -4.32,2.42c-14.75,8.85 -30.6,14.69 -47.59,17.37c-14.26,2.25 -28.52,2.19 -42.81,-0.08c-19.61,-3.13 -37.41,-10.71 -53.83,-21.64c-8.81,-5.86 -16.13,-13.48 -23.35,-21.13c-17.2,-18.22 -27.2,-40.06 -31.95,-64.45c-2.28,-11.68 -2.87,-23.48 -1.82,-35.33c2,-22.62 9.2,-43.54 21.95,-62.28c19.64,-28.86 46.41,-47.94 80.58,-55.72c38.1,-8.68 73.49,-1.54 105.88,20.19c9.3,6.24 16.97,14.42 24.55,22.6c16.12,17.39 25.19,38.33 29.94,61.21c3.24,15.62 3.31,31.5 0.8,47.25c-2.51,15.75 -8.05,30.52 -15.93,44.39c-1.23,2.17 -2.46,4.33 -3.81,6.7c4.68,4.62 9.34,9.16 13.93,13.77c32.36,32.56 64.7,65.13 97.03,97.73c3.04,3.07 5.84,6.37 8.87,9.45c2.17,2.21 3.28,4.82 3.68,7.82c0.05,0.35 0.23,0.69 0.35,1.03c-0.01,2.39 -0.01,4.77 -0.01,7.15zm-235.09,-300.18c-50.16,0.34 -89.45,40.06 -90.35,88.51c-0.97,52.14 41.46,91.16 89.1,92.01c49.18,0.88 91.54,-41.28 90.92,-88.04c2.57,-48.95 -39.07,-92.59 -89.67,-92.48z"/>
		</g>
	</g>
</svg>
