<svg width="372" height="264" xmlns="http://www.w3.org/2000/svg">
	<g>
		<title>background</title>
		<rect fill="none" id="canvas_background" height="266" width="374" y="-1" x="-1"/>
	</g>
	<g>
		<title>Layer 1</title>
		<g id="svg_1">
			<path id="svg_2" d="m182.833671,1.90543c32.79,0.9 61.87,1.39 90.92,2.6c16.03,0.67 32.03,2.36 48.01,3.96c14.23,1.42 26.24,7.31 35.04,19c5.75,7.64 8.13,16.51 9.73,25.7c2.25,12.91 3.38,25.89 3.29,39.03c-0.21,29.62 0.17,59.24 -0.17,88.86c-0.16,13.7 -1.77,27.41 -5.73,40.56c-5.63,18.65 -18.61,29.73 -37.78,32.81c-11.38,1.83 -22.92,2.95 -34.43,3.64c-42.11,2.52 -84.27,3.31 -126.45,2.71c-21.2,-0.3 -42.39,-0.93 -63.57,-1.76c-17.43,-0.69 -34.84,-1.72 -52.11,-4.47c-20.81,-3.31 -35.33,-16.18 -40.05,-36.21c-1.78,-7.57 -2.95,-15.33 -3.8,-23.06c-2.63,-23.99 -3.66,-48.07 -3.23,-72.2c0.39,-21.73 1.36,-43.45 4.53,-64.99c1.18,-8.01 2.33,-16.1 6.11,-23.42c7.4,-14.32 18.96,-23.33 35.01,-25.69c11.49,-1.69 23.08,-3.11 34.67,-3.6c34.55,-1.47 69.12,-2.44 100.01,-3.47zm-32.51,185.22c32.24,-18.56 64.08,-36.88 96.27,-55.41c-32.23,-18.55 -64.11,-36.89 -96.27,-55.4c0,37.12 0,73.69 0,110.81z"/>
		</g>
	</g>
</svg>
